# Blender v2.69 (sub 0) OBJ File: 'object.blend'
# www.blender.org
o Cylinder.001
v -0.500000 1.570000 -3.250000
v 0.500000 1.570000 -3.250000
v -0.500000 1.472455 -3.240393
v 0.500000 1.472455 -3.240393
v -0.500000 1.378659 -3.211940
v 0.500000 1.378658 -3.211940
v -0.500000 1.292215 -3.165735
v 0.500000 1.292215 -3.165735
v -0.500000 1.216447 -3.103553
v 0.500000 1.216446 -3.103553
v -0.500000 1.154266 -3.027785
v 0.500000 1.154265 -3.027785
v -0.500000 1.108061 -2.941342
v 0.500000 1.108060 -2.941342
v -0.500000 1.079608 -2.847545
v 0.500000 1.079607 -2.847545
v -0.500000 1.070000 -2.750000
v 0.500000 1.070000 -2.750000
v -0.500000 1.079608 -2.652455
v 0.500000 1.079607 -2.652455
v -0.500000 1.108061 -2.558658
v 0.500000 1.108060 -2.558658
v -0.500000 1.154266 -2.472215
v 0.500000 1.154265 -2.472215
v -0.500000 1.216447 -2.396447
v 0.500000 1.216446 -2.396447
v -0.500000 1.292215 -2.334265
v 0.500000 1.292215 -2.334265
v -0.500000 1.378659 -2.288060
v 0.500000 1.378658 -2.288060
v -0.500000 1.472455 -2.259607
v 0.500000 1.472455 -2.259607
v -0.500000 1.570001 -2.250000
v 0.500000 1.570000 -2.250000
v -0.500000 1.667546 -2.259607
v 0.500000 1.667545 -2.259607
v -0.500000 1.761342 -2.288060
v 0.500000 1.761342 -2.288060
v -0.500000 1.847786 -2.334265
v 0.500000 1.847785 -2.334265
v -0.500000 1.923554 -2.396447
v 0.500000 1.923553 -2.396447
v -0.500000 1.985735 -2.472215
v 0.500000 1.985735 -2.472215
v -0.500000 2.031940 -2.558659
v 0.500000 2.031940 -2.558659
v -0.500000 2.060393 -2.652455
v 0.500000 2.060392 -2.652455
v -0.500000 2.070000 -2.750000
v 0.500000 2.070000 -2.750000
v -0.500000 2.060393 -2.847546
v 0.500000 2.060392 -2.847546
v -0.500000 2.031940 -2.941342
v 0.500000 2.031939 -2.941342
v -0.500000 1.985735 -3.027786
v 0.500000 1.985734 -3.027786
v -0.500000 1.923553 -3.103554
v 0.500000 1.923553 -3.103554
v -0.500000 1.847785 -3.165735
v 0.500000 1.847784 -3.165735
v -0.500000 1.761341 -3.211940
v 0.500000 1.761341 -3.211940
v -0.500000 1.667545 -3.240393
v 0.500000 1.667544 -3.240393
vn -0.000000 -0.098017 -0.995185
vn -0.000000 -0.290284 -0.956940
vn -0.000000 -0.471397 -0.881921
vn -0.000001 -0.634394 -0.773010
vn -0.000000 -0.773011 -0.634393
vn -0.000000 -0.881921 -0.471397
vn -0.000001 -0.956940 -0.290286
vn -0.000001 -0.995185 -0.098016
vn -0.000001 -0.995185 0.098016
vn -0.000001 -0.956940 0.290285
vn -0.000001 -0.881922 0.471396
vn -0.000000 -0.773010 0.634394
vn -0.000000 -0.634394 0.773010
vn -0.000000 -0.471397 0.881921
vn -0.000000 -0.290284 0.956940
vn 0.000000 -0.098017 0.995185
vn 0.000000 0.098017 0.995185
vn 0.000000 0.290287 0.956940
vn 0.000000 0.471396 0.881922
vn 0.000000 0.634394 0.773010
vn 0.000000 0.773011 0.634393
vn 0.000001 0.881922 0.471395
vn 0.000000 0.956941 0.290283
vn 0.000001 0.995185 0.098018
vn 0.000001 0.995185 -0.098018
vn 0.000000 0.956940 -0.290284
vn 0.000001 0.881919 -0.471400
vn 0.000001 0.773011 -0.634393
vn 0.000001 0.634393 -0.773011
vn 0.000001 0.471396 -0.881922
vn 1.000000 -0.000002 0.000000
vn -0.000000 0.098018 -0.995185
vn 0.000001 0.290282 -0.956941
vn -1.000000 0.000001 0.000000
vn -0.000000 -0.290285 -0.956940
vn -0.000000 -0.471398 -0.881921
vn -0.000000 -0.634394 -0.773009
vn -0.000000 -0.773010 -0.634394
vn -0.000001 -0.881921 -0.471396
vn -0.000001 -0.956940 -0.290287
vn -0.000001 -0.995185 -0.098017
vn -0.000001 -0.995185 0.098017
vn -0.000001 -0.956940 0.290286
vn -0.000001 -0.881921 0.471398
vn -0.000001 -0.773009 0.634395
vn -0.000000 -0.634394 0.773009
vn -0.000000 -0.290285 0.956940
vn 0.000001 0.634394 0.773009
vn 0.000001 0.773012 0.634392
vn 0.000000 0.881921 0.471397
vn 0.000001 0.956941 0.290281
vn 0.000000 0.995185 -0.098018
vn 0.000001 0.956940 -0.290286
vn 0.000001 0.881920 -0.471398
vn 0.000001 0.773010 -0.634394
vn 0.000000 0.634393 -0.773010
vn 0.000000 0.471395 -0.881922
vn 1.000000 -0.000000 0.000000
vn 1.000000 -0.000001 -0.000000
vn 1.000000 -0.000001 0.000001
vn 1.000000 -0.000000 -0.000001
vn 1.000000 0.000002 0.000000
vn 1.000000 0.000001 0.000000
vn 0.000000 0.098017 -0.995185
vn 0.000000 0.290282 -0.956941
vn -1.000000 0.000000 -0.000000
vn -1.000000 0.000001 0.000001
vn -1.000000 0.000003 0.000000
vn -1.000000 0.000002 0.000000
s off
f 1//1 2//1 3//1
f 3//2 4//2 5//2
f 5//3 6//3 7//3
f 7//4 8//4 9//4
f 9//5 10//5 11//5
f 11//6 12//6 13//6
f 13//7 14//7 15//7
f 15//8 16//8 17//8
f 17//9 18//9 19//9
f 19//10 20//10 21//10
f 21//11 22//11 23//11
f 23//12 24//12 25//12
f 25//13 26//13 27//13
f 27//14 28//14 29//14
f 29//15 30//15 31//15
f 31//16 32//16 33//16
f 33//17 34//17 35//17
f 35//18 36//18 37//18
f 37//19 38//19 39//19
f 39//20 40//20 41//20
f 41//21 42//21 43//21
f 43//22 44//22 45//22
f 45//23 46//23 47//23
f 47//24 48//24 49//24
f 49//25 50//25 51//25
f 51//26 52//26 53//26
f 53//27 54//27 55//27
f 55//28 56//28 57//28
f 57//29 58//29 59//29
f 59//30 60//30 61//30
f 4//31 2//31 6//31
f 63//32 64//32 1//32
f 61//33 62//33 63//33
f 1//34 3//34 63//34
f 2//1 4//1 3//1
f 4//35 6//35 5//35
f 6//36 8//36 7//36
f 8//37 10//37 9//37
f 10//38 12//38 11//38
f 12//39 14//39 13//39
f 14//40 16//40 15//40
f 16//41 18//41 17//41
f 18//42 20//42 19//42
f 20//43 22//43 21//43
f 22//44 24//44 23//44
f 24//45 26//45 25//45
f 26//46 28//46 27//46
f 28//14 30//14 29//14
f 30//47 32//47 31//47
f 32//16 34//16 33//16
f 34//17 36//17 35//17
f 36//18 38//18 37//18
f 38//19 40//19 39//19
f 40//48 42//48 41//48
f 42//49 44//49 43//49
f 44//50 46//50 45//50
f 46//51 48//51 47//51
f 48//24 50//24 49//24
f 50//52 52//52 51//52
f 52//53 54//53 53//53
f 54//54 56//54 55//54
f 56//55 58//55 57//55
f 58//56 60//56 59//56
f 60//57 62//57 61//57
f 2//58 64//58 6//58
f 64//59 62//59 6//59
f 62//59 60//59 6//59
f 60//59 58//59 6//59
f 58//60 56//60 6//60
f 56//58 54//58 6//58
f 54//59 52//59 6//59
f 52//59 50//59 6//59
f 50//58 48//58 6//58
f 48//59 46//59 6//59
f 46//59 44//59 6//59
f 42//59 40//59 38//59
f 34//59 38//59 36//59
f 42//59 38//59 34//59
f 44//61 42//61 34//61
f 6//59 44//59 34//59
f 28//59 32//59 30//59
f 22//59 26//59 24//59
f 16//31 20//31 18//31
f 10//62 14//62 12//62
f 28//58 34//58 32//58
f 6//59 34//59 28//59
f 8//63 6//63 10//63
f 6//59 28//59 10//59
f 28//59 26//59 10//59
f 26//58 22//58 10//58
f 22//59 20//59 10//59
f 20//59 16//59 14//59
f 10//58 20//58 14//58
f 64//64 2//64 1//64
f 62//65 64//65 63//65
f 3//34 5//34 63//34
f 5//34 7//34 63//34
f 7//66 9//66 63//66
f 9//67 11//67 63//67
f 11//34 13//34 63//34
f 13//34 15//34 63//34
f 15//34 17//34 63//34
f 17//34 19//34 63//34
f 19//66 21//66 63//66
f 21//34 23//34 63//34
f 23//66 25//66 63//66
f 37//34 33//34 35//34
f 41//34 37//34 39//34
f 41//34 33//34 37//34
f 55//68 51//68 53//68
f 51//69 47//69 49//69
f 55//34 47//34 51//34
f 63//34 59//34 61//34
f 63//34 25//34 59//34
f 59//34 25//34 57//34
f 55//69 45//69 47//69
f 25//34 27//34 29//34
f 57//34 25//34 29//34
f 55//66 57//66 45//66
f 57//34 29//34 45//34
f 29//66 31//66 45//66
f 31//34 33//34 45//34
f 33//34 41//34 43//34
f 45//34 33//34 43//34
