# Blender v2.69 (sub 0) OBJ File: 'object.blend'
# www.blender.org
o Cylinder.002
v 0.000000 0.319791 -2.850000
v 0.000000 1.619791 -2.850000
v 0.019509 0.319791 -2.848078
v 0.019509 1.619791 -2.848078
v 0.038268 0.319791 -2.842388
v 0.038268 1.619791 -2.842388
v 0.055557 0.319791 -2.833147
v 0.055557 1.619791 -2.833147
v 0.070711 0.319791 -2.820711
v 0.070711 1.619791 -2.820711
v 0.083147 0.319791 -2.805557
v 0.083147 1.619791 -2.805557
v 0.092388 0.319791 -2.788268
v 0.092388 1.619791 -2.788268
v 0.098079 0.319791 -2.769509
v 0.098079 1.619791 -2.769509
v 0.100000 0.319791 -2.750000
v 0.100000 1.619791 -2.750000
v 0.098079 0.319791 -2.730491
v 0.098079 1.619791 -2.730491
v 0.092388 0.319791 -2.711732
v 0.092388 1.619791 -2.711732
v 0.083147 0.319791 -2.694443
v 0.083147 1.619791 -2.694443
v 0.070711 0.319791 -2.679289
v 0.070711 1.619791 -2.679289
v 0.055557 0.319791 -2.666853
v 0.055557 1.619791 -2.666853
v 0.038268 0.319791 -2.657612
v 0.038268 1.619791 -2.657612
v 0.019509 0.319791 -2.651922
v 0.019509 1.619791 -2.651922
v -0.000000 0.319791 -2.650000
v -0.000000 1.619791 -2.650000
v -0.019509 0.319791 -2.651922
v -0.019509 1.619791 -2.651922
v -0.038268 0.319791 -2.657612
v -0.038268 1.619791 -2.657612
v -0.055557 0.319791 -2.666853
v -0.055557 1.619791 -2.666853
v -0.070711 0.319791 -2.679289
v -0.070711 1.619791 -2.679289
v -0.083147 0.319791 -2.694443
v -0.083147 1.619791 -2.694443
v -0.092388 0.319791 -2.711732
v -0.092388 1.619791 -2.711732
v -0.098079 0.319791 -2.730491
v -0.098079 1.619791 -2.730491
v -0.100000 0.319791 -2.750000
v -0.100000 1.619791 -2.750000
v -0.098079 0.319791 -2.769509
v -0.098079 1.619791 -2.769509
v -0.092388 0.319791 -2.788269
v -0.092388 1.619791 -2.788269
v -0.083147 0.319791 -2.805557
v -0.083147 1.619791 -2.805557
v -0.070711 0.319791 -2.820711
v -0.070711 1.619791 -2.820711
v -0.055557 0.319791 -2.833147
v -0.055557 1.619791 -2.833147
v -0.038268 0.319791 -2.842388
v -0.038268 1.619791 -2.842388
v -0.019509 0.319791 -2.848078
v -0.019509 1.619791 -2.848078
vn 0.098035 -0.000000 -0.995183
vn 0.290293 0.000000 -0.956938
vn 0.471390 0.000000 -0.881925
vn 0.634392 -0.000000 -0.773012
vn 0.773011 -0.000000 -0.634392
vn 0.881921 0.000000 -0.471397
vn 0.956940 -0.000000 -0.290285
vn 0.995185 0.000000 -0.098018
vn 0.995185 -0.000000 0.098017
vn 0.956940 -0.000000 0.290286
vn 0.881923 -0.000000 0.471393
vn 0.773008 -0.000000 0.634397
vn 0.634393 -0.000000 0.773011
vn 0.471396 -0.000000 0.881922
vn 0.290278 -0.000000 0.956942
vn 0.098015 0.000000 0.995185
vn -0.098019 0.000000 0.995185
vn -0.290284 0.000000 0.956941
vn -0.471406 -0.000000 0.881916
vn -0.634393 -0.000000 0.773010
vn -0.773008 0.000000 0.634396
vn -0.881923 -0.000000 0.471394
vn -0.956941 0.000000 0.290283
vn -0.995185 -0.000000 0.098015
vn -0.995184 0.000000 -0.098020
vn -0.956941 -0.000000 -0.290282
vn -0.881922 0.000000 -0.471396
vn -0.773013 0.000000 -0.634390
vn -0.634390 -0.000000 -0.773013
vn -0.471407 -0.000000 -0.881916
vn 0.000000 1.000000 0.000043
vn -0.098018 0.000000 -0.995185
vn -0.290281 0.000000 -0.956942
vn 0.000000 -1.000000 -0.000017
vn 0.290279 0.000000 -0.956942
vn 0.471395 0.000000 -0.881922
vn 0.634395 -0.000000 -0.773009
vn 0.773006 -0.000000 -0.634398
vn 0.956941 -0.000000 -0.290284
vn 0.995185 0.000000 -0.098017
vn 0.995185 -0.000000 0.098016
vn 0.956940 -0.000000 0.290285
vn 0.881919 -0.000000 0.471400
vn 0.773010 -0.000000 0.634394
vn 0.634389 -0.000000 0.773014
vn 0.290282 -0.000000 0.956941
vn 0.098021 0.000000 0.995184
vn -0.098007 0.000000 0.995186
vn -0.290288 0.000000 0.956939
vn -0.634389 -0.000000 0.773014
vn -0.773010 0.000000 0.634393
vn -0.881923 -0.000000 0.471393
vn -0.956941 0.000000 0.290284
vn -0.995185 -0.000000 0.098016
vn -0.995185 0.000000 -0.098018
vn -0.881922 0.000000 -0.471395
vn -0.773008 0.000000 -0.634396
vn -0.634386 -0.000000 -0.773016
vn 0.000000 1.000000 -0.000018
vn 0.000000 1.000000 -0.000021
vn 0.000000 1.000000 0.000010
vn 0.000000 1.000000 -0.000005
vn 0.000000 1.000000 -0.000002
vn 0.000000 1.000000 0.000000
vn 0.000000 1.000000 0.000001
vn 0.000000 1.000000 -0.000006
vn 0.000000 1.000000 -0.000032
vn 0.000000 1.000000 -0.000001
vn 0.000000 1.000000 0.000007
vn 0.000000 1.000000 0.000022
vn 0.000000 1.000000 -0.000012
vn 0.000000 1.000000 -0.000003
vn 0.000000 1.000000 0.000003
vn -0.290273 0.000000 -0.956944
vn 0.000000 -1.000000 0.000011
vn 0.000000 -1.000000 -0.000003
vn 0.000000 -1.000000 0.000001
vn 0.000000 -1.000000 0.000002
vn 0.000000 -1.000000 -0.000000
vn 0.000000 -1.000000 -0.000001
vn 0.000000 -1.000000 -0.000002
vn 0.000000 -1.000000 0.000008
s off
f 1//1 2//1 3//1
f 3//2 4//2 5//2
f 5//3 6//3 7//3
f 7//4 8//4 9//4
f 9//5 10//5 11//5
f 11//6 12//6 13//6
f 13//7 14//7 15//7
f 15//8 16//8 17//8
f 17//9 18//9 19//9
f 19//10 20//10 21//10
f 21//11 22//11 23//11
f 23//12 24//12 25//12
f 25//13 26//13 27//13
f 27//14 28//14 29//14
f 29//15 30//15 31//15
f 31//16 32//16 33//16
f 33//17 34//17 35//17
f 35//18 36//18 37//18
f 37//19 38//19 39//19
f 39//20 40//20 41//20
f 41//21 42//21 43//21
f 43//22 44//22 45//22
f 45//23 46//23 47//23
f 47//24 48//24 49//24
f 49//25 50//25 51//25
f 51//26 52//26 53//26
f 53//27 54//27 55//27
f 55//28 56//28 57//28
f 57//29 58//29 59//29
f 59//30 60//30 61//30
f 4//31 2//31 6//31
f 63//32 64//32 1//32
f 61//33 62//33 63//33
f 1//34 3//34 63//34
f 2//1 4//1 3//1
f 4//35 6//35 5//35
f 6//36 8//36 7//36
f 8//37 10//37 9//37
f 10//38 12//38 11//38
f 12//6 14//6 13//6
f 14//39 16//39 15//39
f 16//40 18//40 17//40
f 18//41 20//41 19//41
f 20//42 22//42 21//42
f 22//43 24//43 23//43
f 24//44 26//44 25//44
f 26//45 28//45 27//45
f 28//14 30//14 29//14
f 30//46 32//46 31//46
f 32//47 34//47 33//47
f 34//48 36//48 35//48
f 36//49 38//49 37//49
f 38//19 40//19 39//19
f 40//50 42//50 41//50
f 42//51 44//51 43//51
f 44//52 46//52 45//52
f 46//53 48//53 47//53
f 48//54 50//54 49//54
f 50//55 52//55 51//55
f 52//26 54//26 53//26
f 54//56 56//56 55//56
f 56//57 58//57 57//57
f 58//58 60//58 59//58
f 60//30 62//30 61//30
f 2//59 64//59 6//59
f 64//60 62//60 6//60
f 62//61 60//61 6//61
f 60//62 58//62 6//62
f 58//63 56//63 6//63
f 56//64 54//64 6//64
f 54//64 52//64 6//64
f 52//62 50//62 6//62
f 50//63 48//63 6//63
f 48//65 46//65 6//65
f 46//63 44//63 6//63
f 6//66 10//66 8//66
f 6//65 44//65 10//65
f 44//67 42//67 40//67
f 10//68 44//68 40//68
f 36//60 40//60 38//60
f 10//64 40//64 36//64
f 28//69 32//69 30//69
f 24//66 28//66 26//66
f 24//62 32//62 28//62
f 12//70 10//70 14//70
f 10//64 36//64 14//64
f 34//71 32//71 24//71
f 18//72 22//72 20//72
f 36//73 34//73 14//73
f 34//65 24//65 14//65
f 24//68 22//68 14//68
f 22//63 18//63 16//63
f 14//68 22//68 16//68
f 64//32 2//32 1//32
f 62//74 64//74 63//74
f 3//75 5//75 63//75
f 5//76 7//76 63//76
f 7//76 9//76 63//76
f 9//77 11//77 63//77
f 11//78 13//78 63//78
f 13//79 15//79 63//79
f 15//80 17//80 63//80
f 17//80 19//80 63//80
f 19//79 21//79 63//79
f 21//79 23//79 63//79
f 23//77 25//77 63//77
f 63//77 59//77 61//77
f 63//79 25//79 59//79
f 27//76 29//76 31//76
f 39//80 35//80 37//80
f 43//80 39//80 41//80
f 43//81 35//81 39//81
f 59//79 55//79 57//79
f 59//79 25//79 55//79
f 27//82 31//82 33//82
f 47//79 43//79 45//79
f 47//77 35//77 43//77
f 47//80 33//80 35//80
f 27//79 33//79 47//79
f 55//79 51//79 53//79
f 55//79 25//79 51//79
f 27//77 47//77 49//77
f 25//77 27//77 49//77
f 51//79 25//79 49//79
