# Blender v2.69 (sub 0) OBJ File: 'untitled.blend'
# www.blender.org
o Cylinder_Cylinder.001
v 0.677471 2.435570 2.402937
v 0.367605 2.429050 2.429091
v 0.670232 2.512328 2.336306
v 0.360366 2.505809 2.362460
v 0.663962 2.597344 2.283220
v 0.354097 2.590825 2.309373
v 0.658903 2.687352 2.245718
v 0.349038 2.680832 2.271872
v 0.655249 2.778891 2.225244
v 0.345384 2.772372 2.251397
v 0.653141 2.868445 2.222582
v 0.343275 2.861925 2.248736
v 0.652658 2.952571 2.237836
v 0.342793 2.946051 2.263990
v 0.653821 3.028037 2.270419
v 0.343955 3.021518 2.296573
v 0.656583 3.091942 2.319079
v 0.346718 3.085423 2.345233
v 0.660840 3.141832 2.381947
v 0.350974 3.135313 2.408101
v 0.666427 3.175788 2.456605
v 0.356561 3.169268 2.482759
v 0.673130 3.192506 2.540186
v 0.363264 3.185986 2.566340
v 0.680691 3.191342 2.629477 
v 0.370825 3.184823 2.655631
v 0.688819 3.172343 2.721046
v 0.378954 3.165824 2.747200
v 0.697203 3.136238 2.811376
v 0.387337 3.129719 2.837530
v 0.705520 3.084414 2.896994
v 0.395654 3.077895 2.923147
v 0.713450 3.018864 2.974609
v 0.403584 3.012344 3.000763
v 0.720689 2.942105 3.041241
v 0.410823 2.935586 3.067395
v 0.726958 2.857089 3.094327
v 0.417092 2.850569 3.120481 
v 0.732017 2.767081 3.131828
v 0.422151 2.760562 3.157982
v 0.735671 2.675542 3.152303
v 0.425805 2.669023 3.178457
v 0.737780 2.585989 3.154964
v 0.427914 2.579469 3.181118
v 0.738262 2.501862 3.139710
v 0.428397 2.495343 3.165864
v 0.737100 2.426396 3.107127
v 0.427234 2.419877 3.133281
v 0.734337 2.362491 3.058467
v 0.424472 2.355972 3.084620
v 0.730081 2.312601 2.995599
v 0.420215 2.306082 3.021753
v 0.724494 2.278646 2.920941
v 0.414628 2.272126 2.947094
v 0.717791 2.261928 2.837360
v 0.407925 2.255409 2.863514
v 0.710230 2.263091 2.748069
v 0.400364 2.256572 2.774223
v 0.702101 2.282090 2.656499
v 0.392236 2.275571 2.682653
v 0.693717 2.318196 2.566170
v 0.383852 2.311677 2.592324
v 0.685401 2.370019 2.480552
v 0.375535 2.363500 2.506706
vn -0.049633 -0.657391 -0.751913
vn -0.060105 -0.531875 -0.844687
vn -0.069464 -0.386994 -0.919462
vn -0.077425 -0.220565 -0.972295
vn -0.083403 -0.031567 -0.996016
vn -0.086474 0.177266 -0.980357
vn -0.085498 0.396050 -0.914240
vn -0.079550 0.606061 -0.791430
vn -0.068591 0.783731 -0.617301
vn -0.053767 0.910468 -0.410070
vn -0.036931 0.980473 -0.193155
vn -0.019792 0.999696 0.014697
vn -0.003427 0.979080 0.203448
vn 0.011703 0.928881 0.370193
vn 0.025522 0.856308 0.515834
vn 0.038125 0.765351 0.642483
vn 0.049633 0.657393 0.751912
vn 0.060105 0.531875 0.844687
vn 0.069465 0.386994 0.919462
vn 0.077424 0.220565 0.972295
vn 0.083403 0.031565 0.996016
vn 0.086476 -0.177265 0.980356
vn 0.085498 -0.396050 0.914240
vn 0.079551 -0.606067 0.791426
vn 0.068592 -0.783732 0.617300
vn 0.053767 -0.910468 0.410069
vn 0.036931 -0.980473 0.193153
vn 0.019792 -0.999696 -0.014698
vn 0.003427 -0.979079 -0.203450
vn -0.011703 -0.928880 -0.370197
vn -0.996238 -0.020963 0.084087
vn -0.038125 -0.765351 -0.642483
vn -0.025522 -0.856308 -0.515834
vn 0.996238 0.020956 -0.084087
vn -0.049633 -0.657390 -0.751914
vn -0.060104 -0.531874 -0.844688
vn -0.069464 -0.386993 -0.919462
vn -0.077424 -0.220567 -0.972294
vn -0.083404 -0.031565 -0.996016
vn -0.086476 0.177266 -0.980356
vn -0.085497 0.396047 -0.914241
vn -0.079550 0.606065 -0.791427
vn -0.068591 0.783730 -0.617302
vn -0.053767 0.910468 -0.410071
vn -0.036931 0.980474 -0.193149
vn -0.019792 0.999696 0.014703
vn -0.003427 0.979080 0.203445
vn 0.011703 0.928880 0.370195
vn 0.025522 0.856307 0.515837
vn 0.038126 0.765352 0.642482
vn 0.049633 0.657392 0.751912
vn 0.060104 0.531875 0.844687
vn 0.069463 0.386993 0.919462
vn 0.077424 0.220564 0.972295
vn 0.086475 -0.177266 0.980357
vn 0.079550 -0.606066 0.791426
vn 0.068591 -0.783731 0.617301
vn 0.053767 -0.910469 0.410068
vn 0.036931 -0.980474 0.193152
vn 0.003427 -0.979080 -0.203449
vn -0.011703 -0.928880 -0.370195
vn -0.996238 -0.020961 0.084087
vn -0.996238 -0.020960 0.084086
vn -0.996238 -0.020961 0.084086
vn -0.996238 -0.020959 0.084086
vn -0.996238 -0.020961 0.084088
vn -0.996238 -0.020960 0.084087
vn -0.038126 -0.765352 -0.642482
vn -0.025522 -0.856309 -0.515833
vn 0.996238 0.020959 -0.084088
vn 0.996238 0.020959 -0.084087
vn 0.996238 0.020961 -0.084086
vn 0.996238 0.020960 -0.084087
vn 0.996238 0.020960 -0.084086
vn 0.996238 0.020966 -0.084089
vn 0.996238 0.020959 -0.084086
s off
f 1//1 2//1 3//1
f 3//2 4//2 5//2
f 5//3 6//3 7//3
f 7//4 8//4 9//4
f 9//5 10//5 11//5
f 11//6 12//6 13//6
f 13//7 14//7 15//7
f 15//8 16//8 17//8
f 17//9 18//9 19//9
f 19//10 20//10 21//10
f 21//11 22//11 23//11
f 23//12 24//12 25//12
f 25//13 26//13 27//13
f 27//14 28//14 29//14
f 29//15 30//15 31//15
f 31//16 32//16 33//16
f 33//17 34//17 35//17
f 35//18 36//18 37//18
f 37//19 38//19 39//19
f 39//20 40//20 41//20
f 41//21 42//21 43//21
f 43//22 44//22 45//22
f 45//23 46//23 47//23
f 47//24 48//24 49//24
f 49//25 50//25 51//25
f 51//26 52//26 53//26
f 53//27 54//27 55//27
f 55//28 56//28 57//28
f 57//29 58//29 59//29
f 59//30 60//30 61//30
f 4//31 2//31 6//31
f 63//32 64//32 1//32
f 61//33 62//33 63//33
f 1//34 3//34 63//34
f 2//35 4//35 3//35
f 4//36 6//36 5//36
f 6//37 8//37 7//37
f 8//38 10//38 9//38
f 10//39 12//39 11//39
f 12//40 14//40 13//40
f 14//41 16//41 15//41
f 16//42 18//42 17//42
f 18//43 20//43 19//43
f 20//44 22//44 21//44
f 22//45 24//45 23//45
f 24//46 26//46 25//46
f 26//47 28//47 27//47
f 28//48 30//48 29//48
f 30//49 32//49 31//49
f 32//50 34//50 33//50
f 34//51 36//51 35//51
f 36//52 38//52 37//52
f 38//53 40//53 39//53
f 40//54 42//54 41//54
f 42//21 44//21 43//21
f 44//55 46//55 45//55
f 46//23 48//23 47//23
f 48//56 50//56 49//56
f 50//57 52//57 51//57
f 52//58 54//58 53//58
f 54//59 56//59 55//59
f 56//28 58//28 57//28
f 58//60 60//60 59//60
f 60//61 62//61 61//61
f 2//62 64//62 6//62
f 64//63 62//63 6//63
f 62//64 60//64 6//64
f 60//65 58//65 6//65
f 58//63 56//63 6//63
f 56//63 54//63 6//63
f 54//63 52//63 6//63
f 52//64 50//64 6//64
f 50//63 48//63 6//63
f 48//64 46//64 6//64
f 46//63 44//63 6//63
f 16//66 20//66 18//66
f 14//64 20//64 16//64
f 14//63 22//63 20//63
f 14//67 24//67 22//67
f 12//63 24//63 14//63
f 12//63 26//63 24//63
f 10//63 26//63 12//63
f 8//63 26//63 10//63
f 8//63 28//63 26//63
f 8//63 30//63 28//63
f 6//63 30//63 8//63
f 6//63 32//63 30//63
f 6//63 34//63 32//63
f 6//63 36//63 34//63
f 6//63 38//63 36//63
f 6//63 40//63 38//63
f 44//63 42//63 6//63
f 42//63 40//63 6//63
f 64//68 2//68 1//68
f 62//69 64//69 63//69
f 3//70 5//70 63//70
f 5//71 7//71 63//71
f 7//72 9//72 63//72
f 9//73 11//73 63//73
f 11//72 13//72 63//72
f 13//74 15//74 63//74
f 15//73 17//73 63//73
f 17//74 19//74 63//74
f 19//74 21//74 63//74
f 21//74 23//74 63//74
f 23//74 25//74 63//74
f 51//75 47//75 49//75
f 53//72 47//72 51//72
f 53//76 45//76 47//76
f 53//74 43//74 45//74
f 55//76 43//76 53//76
f 55//74 41//74 43//74
f 57//74 41//74 55//74
f 57//74 39//74 41//74
f 59//74 39//74 57//74
f 59//74 37//74 39//74
f 61//74 37//74 59//74
f 61//74 35//74 37//74
f 63//74 35//74 61//74
f 63//74 33//74 35//74
f 63//74 31//74 33//74
f 63//74 29//74 31//74
f 25//74 27//74 63//74
f 27//74 29//74 63//74
