# Blender v2.69 (sub 0) OBJ File: 'untitled.blend'
# www.blender.org
o Cylinder.001_Cylinder.002
v 0.619660 1.170566 2.761771
v 0.619660 2.917242 2.761771
v 0.629836 1.170566 2.762944
v 0.629836 2.917242 2.762944
v 0.639620 1.170566 2.766418
v 0.639620 2.917242 2.766418
v 0.648637 1.170566 2.772060
v 0.648637 2.917242 2.772060
v 0.656541 1.170566 2.779653
v 0.656541 2.917242 2.779653
v 0.663027 1.170566 2.788904
v 0.663027 2.917242 2.788904
v 0.667847 1.170566 2.799459
v 0.667847 2.917242 2.799459
v 0.670815 1.170566 2.810913
v 0.670815 2.917242 2.810913
v 0.671817 1.170566 2.822823
v 0.671817 2.917242 2.822823
v 0.670815 1.170566 2.834734
v 0.670815 2.917242 2.834734
v 0.667847 1.170566 2.846187
v 0.667847 2.917242 2.846187
v 0.663027 1.170566 2.856742
v 0.663027 2.917242 2.856742
v 0.656541 1.170566 2.865994
v 0.656541 2.917242 2.865994
v 0.648637 1.170566 2.873586
v 0.648637 2.917242 2.873586
v 0.639620 1.170566 2.879228
v 0.639620 2.917242 2.879228
v 0.629836 1.170566 2.882703
v 0.629836 2.917242 2.882703
v 0.619660 1.170566 2.883876
v 0.619660 2.917242 2.883876
v 0.609485 1.170566 2.882703
v 0.609485 2.917242 2.882703
v 0.599701 1.170566 2.879228
v 0.599701 2.917242 2.879228
v 0.590683 1.170566 2.873586
v 0.590683 2.917242 2.873586
v 0.582780 1.170566 2.865994
v 0.582780 2.917242 2.865994
v 0.576293 1.170566 2.856742
v 0.576293 2.917242 2.856742
v 0.571474 1.170566 2.846187
v 0.571474 2.917242 2.846187
v 0.568506 1.170566 2.834734
v 0.568506 2.917242 2.834734
v 0.567503 1.170566 2.822823
v 0.567503 2.917242 2.822823
v 0.568506 1.170566 2.810913
v 0.568506 2.917242 2.810913
v 0.571474 1.170566 2.799459
v 0.571474 2.917242 2.799459
v 0.576293 1.170566 2.788904
v 0.576293 2.917242 2.788904
v 0.582780 1.170566 2.779653
v 0.582780 2.917242 2.779653
v 0.590684 1.170566 2.772060
v 0.590684 2.917242 2.772060
v 0.599701 1.170566 2.766418
v 0.599701 2.917242 2.766418
v 0.609485 1.170566 2.762944
v 0.609485 2.917242 2.762944
vn 0.114536 0.000000 -0.993419
vn 0.334618 0.000000 -0.942354
vn 0.530429 -0.000000 -0.847730
vn 0.692779 0.000000 -0.721150
vn 0.818809 -0.000000 -0.574067
vn 0.909651 0.000000 -0.415373
vn 0.968024 -0.000000 -0.250859
vn 0.996479 -0.000000 -0.083845
vn 0.996479 -0.000000 0.083848
vn 0.968024 -0.000000 0.250858
vn 0.909651 0.000000 0.415373
vn 0.818802 -0.000000 0.574077
vn 0.692775 0.000000 0.721154
vn 0.530423 -0.000000 0.847733
vn 0.334608 0.000000 0.942357
vn 0.114530 0.000000 0.993420
vn -0.114524 0.000000 0.993420
vn -0.334610 0.000000 0.942357
vn -0.530421 0.000000 0.847734
vn -0.692770 0.000000 0.721158
vn -0.818808 -0.000000 0.574068
vn -0.909653 -0.000000 0.415369
vn -0.968021 0.000000 0.250868
vn -0.996479 -0.000000 0.083846
vn -0.996479 -0.000000 -0.083845
vn -0.968022 -0.000000 -0.250865
vn -0.909650 0.000000 -0.415376
vn -0.818808 -0.000000 -0.574068
vn -0.692752 -0.000000 -0.721176
vn -0.530415 -0.000000 -0.847738
vn 0.000000 1.000000 0.000056
vn -0.114520 -0.000000 -0.993421
vn -0.334598 -0.000000 -0.942361
vn 0.000000 -1.000000 -0.000048
vn 0.114505 0.000000 -0.993423
vn 0.334624 0.000000 -0.942352
vn 0.530404 -0.000000 -0.847745
vn 0.692783 0.000000 -0.721146
vn 0.818801 -0.000000 -0.574078
vn 0.909649 0.000000 -0.415377
vn 0.968023 -0.000000 -0.250862
vn 0.996479 -0.000000 -0.083846
vn 0.996479 -0.000000 0.083845
vn 0.968023 -0.000000 0.250861
vn 0.909650 0.000000 0.415377
vn 0.818810 -0.000000 0.574065
vn 0.692779 0.000000 0.721150
vn 0.530399 -0.000000 0.847748
vn 0.334615 0.000000 0.942355
vn 0.114499 0.000000 0.993423
vn -0.114546 0.000000 0.993418
vn -0.334616 0.000000 0.942355
vn -0.530433 0.000000 0.847727
vn -0.692774 0.000000 0.721154
vn -0.818800 -0.000000 0.574079
vn -0.909655 -0.000000 0.415365
vn -0.968022 0.000000 0.250865
vn -0.996479 -0.000000 0.083847
vn -0.996479 -0.000000 -0.083846
vn -0.968024 -0.000000 -0.250857
vn -0.909648 0.000000 -0.415380
vn -0.818807 -0.000000 -0.574069
vn -0.692771 -0.000000 -0.721158
vn -0.530428 -0.000000 -0.847730
vn 0.000000 1.000000 -0.000044
vn 0.000000 1.000000 -0.000052
vn 0.000000 1.000000 0.000010
vn 0.000000 1.000000 0.000050
vn 0.000000 1.000000 -0.000039
vn 0.000000 1.000000 0.000035
vn 0.000000 1.000000 -0.000013
vn 0.000000 1.000000 -0.000012
vn 0.000000 1.000000 -0.000009
vn 0.000000 1.000000 -0.000001
vn 0.000000 1.000000 -0.000007
vn 0.000000 1.000000 -0.000140
vn 0.000000 1.000000 0.000013
vn 0.000000 1.000000 0.000049
vn 0.000000 1.000000 -0.000008
vn 0.000000 1.000000 0.000037
vn 0.000000 1.000000 -0.000053
vn 0.000000 1.000000 -0.000005
vn 0.000000 1.000000 -0.000027
vn 0.000000 1.000000 0.000025
vn 0.000000 1.000000 0.000023
vn 0.000000 1.000000 0.000022
vn 0.000000 1.000000 -0.000021
vn 0.000000 1.000000 -0.000011
vn 0.000000 1.000000 -0.000010
vn -0.114541 -0.000000 -0.993419
vn -0.334605 -0.000000 -0.942359
vn 0.000000 -1.000000 0.000024
vn 0.000000 -1.000000 -0.000011
vn 0.000000 -1.000000 0.000010
vn 0.000000 -1.000000 -0.000004
vn 0.000000 -1.000000 0.000001
vn 0.000000 -1.000000 -0.000003
vn 0.000000 -1.000000 0.000003
vn 0.000000 -1.000000 -0.000002
vn 0.000000 -1.000000 -0.000001
vn 0.000000 -1.000000 0.000002
vn 0.000000 -1.000000 0.000012
vn 0.000000 -1.000000 0.000014
vn 0.000000 -1.000000 -0.000017
vn 0.000000 -1.000000 0.000028
vn 0.000000 -1.000000 -0.000000
vn 0.000000 -1.000000 0.000006
vn 0.000000 -1.000000 0.000007
vn 0.000000 -1.000000 0.000004
vn 0.000000 -1.000000 -0.000014
vn 0.000000 -1.000000 -0.000006
vn 0.000000 -1.000000 0.000048
s off
f 1//1 2//1 3//1
f 3//2 4//2 5//2
f 5//3 6//3 7//3
f 7//4 8//4 9//4
f 9//5 10//5 11//5
f 11//6 12//6 13//6
f 13//7 14//7 15//7
f 15//8 16//8 17//8
f 17//9 18//9 19//9
f 19//10 20//10 21//10
f 21//11 22//11 23//11
f 23//12 24//12 25//12
f 25//13 26//13 27//13
f 27//14 28//14 29//14
f 29//15 30//15 31//15
f 31//16 32//16 33//16
f 33//17 34//17 35//17
f 35//18 36//18 37//18
f 37//19 38//19 39//19
f 39//20 40//20 41//20
f 41//21 42//21 43//21
f 43//22 44//22 45//22
f 45//23 46//23 47//23
f 47//24 48//24 49//24
f 49//25 50//25 51//25
f 51//26 52//26 53//26
f 53//27 54//27 55//27
f 55//28 56//28 57//28
f 57//29 58//29 59//29
f 59//30 60//30 61//30
f 4//31 2//31 6//31
f 63//32 64//32 1//32
f 61//33 62//33 63//33
f 1//34 3//34 63//34
f 2//35 4//35 3//35
f 4//36 6//36 5//36
f 6//37 8//37 7//37
f 8//38 10//38 9//38
f 10//39 12//39 11//39
f 12//40 14//40 13//40
f 14//41 16//41 15//41
f 16//42 18//42 17//42
f 18//43 20//43 19//43
f 20//44 22//44 21//44
f 22//45 24//45 23//45
f 24//46 26//46 25//46
f 26//47 28//47 27//47
f 28//48 30//48 29//48
f 30//49 32//49 31//49
f 32//50 34//50 33//50
f 34//51 36//51 35//51
f 36//52 38//52 37//52
f 38//53 40//53 39//53
f 40//54 42//54 41//54
f 42//55 44//55 43//55
f 44//56 46//56 45//56
f 46//57 48//57 47//57
f 48//58 50//58 49//58
f 50//59 52//59 51//59
f 52//60 54//60 53//60
f 54//61 56//61 55//61
f 56//62 58//62 57//62
f 58//63 60//63 59//63
f 60//64 62//64 61//64
f 2//65 64//65 6//65
f 64//66 62//66 6//66
f 62//67 60//67 6//67
f 60//68 58//68 6//68
f 58//69 56//69 6//69
f 56//70 54//70 6//70
f 54//71 52//71 6//71
f 52//72 50//72 6//72
f 50//73 48//73 6//73
f 48//74 46//74 6//74
f 46//75 44//75 6//75
f 32//76 36//76 34//76
f 32//77 38//77 36//77
f 30//78 38//78 32//78
f 30//79 40//79 38//79
f 28//80 40//80 30//80
f 42//81 40//81 28//81
f 42//82 28//82 26//82
f 44//75 42//75 26//75
f 44//70 26//70 24//70
f 44//83 24//83 22//83
f 44//84 22//84 20//84
f 44//85 20//85 18//85
f 44//86 18//86 16//86
f 44//87 16//87 14//87
f 44//86 14//86 12//86
f 44//79 12//79 10//79
f 6//88 44//88 8//88
f 44//89 10//89 8//89
f 64//90 2//90 1//90
f 62//91 64//91 63//91
f 3//92 5//92 63//92
f 5//93 7//93 63//93
f 7//94 9//94 63//94
f 9//95 11//95 63//95
f 11//96 13//96 63//96
f 13//97 15//97 63//97
f 15//98 17//98 63//98
f 17//99 19//99 63//99
f 19//96 21//96 63//96
f 21//100 23//100 63//100
f 23//101 25//101 63//101
f 35//102 31//102 33//102
f 35//103 29//103 31//103
f 37//104 29//104 35//104
f 27//105 29//105 37//105
f 27//101 37//101 39//101
f 25//106 27//106 39//106
f 25//95 39//95 41//95
f 25//107 41//107 43//107
f 25//108 43//108 45//108
f 25//109 45//109 47//109
f 25//108 47//108 49//108
f 61//110 63//110 59//110
f 63//100 25//100 59//100
f 25//106 49//106 59//106
f 49//111 51//111 59//111
f 51//110 53//110 59//110
f 53//112 55//112 59//112
f 55//94 57//94 59//94
