# Blender v2.69 (sub 0) OBJ File: 'untitled.blend'
# www.blender.org
o Cylinder.002_Cylinder.003
v 1.626433 1.256354 3.047306
v 0.382759 1.289984 2.675525
v 1.627834 1.265747 3.043469
v 0.384160 1.299377 2.671688
v 1.628629 1.275953 3.041734
v 0.384955 1.309583 2.669954
v 1.628786 1.286579 3.042169
v 0.385112 1.320210 2.670388
v 1.628301 1.297218 3.044755
v 0.384627 1.330849 2.672975
v 1.627191 1.307461 3.049395
v 0.383517 1.341091 2.677614
v 1.625499 1.316914 3.055908
v 0.381825 1.350544 2.684128
v 1.623291 1.325213 3.064046
v 0.379617 1.358843 2.692266
v 1.620651 1.332040 3.073496
v 0.376977 1.365670 2.701715
v 1.617680 1.337132 3.083894
v 0.374006 1.370762 2.712113
v 1.614493 1.340294 3.094840
v 0.370820 1.373924 2.723059
v 1.611213 1.341404 3.105915
v 0.367539 1.375034 2.734134
v 1.607964 1.340420 3.116692
v 0.364291 1.374050 2.744911
v 1.604873 1.337378 3.126757
v 0.361199 1.371009 2.754977
v 1.602058 1.332397 3.135724
v 0.358384 1.366028 2.763943
v 1.599627 1.325668 3.143248
v 0.355953 1.359299 2.771467
v 1.597673 1.317449 3.149040
v 0.353999 1.351079 2.777259
v 1.596272 1.308056 3.152877
v 0.352599 1.341686 2.781096
v 1.595478 1.297850 3.154611
v 0.351804 1.331481 2.782830
v 1.595320 1.287223 3.154177
v 0.351646 1.320854 2.782396
v 1.595806 1.276584 3.151590
v 0.352132 1.310215 2.779810
v 1.596915 1.266342 3.146951
v 0.353242 1.299972 2.775170
v 1.598607 1.256889 3.140437
v 0.354933 1.290519 2.768656
v 1.600816 1.248590 3.132299
v 0.357142 1.282220 2.760519
v 1.603456 1.241763 3.122850
v 0.359782 1.275393 2.751069
v 1.606426 1.236671 3.112452
v 0.362753 1.270301 2.740671
v 1.609613 1.233509 3.101506
v 0.365939 1.267139 2.729725
v 1.612894 1.232399 3.090431
v 0.369220 1.266029 2.718650
v 1.616142 1.233383 3.079654
v 0.372468 1.267014 2.707873
v 1.619233 1.236424 3.069588
v 0.375560 1.270055 2.697808
v 1.622048 1.241405 3.060621
v 0.378375 1.275036 2.688841
v 1.624480 1.248135 3.053097
v 0.380806 1.281765 2.681317
vn 0.252869 -0.397927 -0.881880
vn 0.277116 -0.181936 -0.943454
vn 0.287105 0.034874 -0.957264
vn 0.284052 0.238710 -0.928618
vn 0.270184 0.421394 -0.865695
vn 0.247781 0.579409 -0.776460
vn 0.218654 0.712239 -0.667013
vn 0.184009 0.820433 -0.541323
vn 0.144509 0.904343 -0.401598
vn 0.100483 0.963278 -0.248995
vn 0.052110 0.995076 -0.084307
vn -0.000242 0.995860 0.090902
vn -0.055662 0.960381 0.273074
vn -0.112241 0.883202 0.455364
vn -0.166800 0.761094 0.626829
vn -0.215105 0.596177 0.773500
vn -0.252866 0.397948 0.881871
vn -0.277116 0.181914 0.943459
vn -0.287104 -0.034850 0.957265
vn -0.284052 -0.238728 0.928614
vn -0.270187 -0.421377 0.865702
vn -0.247782 -0.579410 0.776458
vn -0.218653 -0.712242 0.667010
vn -0.184007 -0.820436 0.541319
vn -0.144509 -0.904340 0.401604
vn -0.100481 -0.963280 0.248988
vn -0.052110 -0.995076 0.084306
vn 0.000243 -0.995860 -0.090899
vn 0.055658 -0.960386 -0.273060
vn 0.112241 -0.883203 -0.455363
vn -0.957791 0.025913 -0.286295
vn 0.215105 -0.596186 -0.773494
vn 0.166803 -0.761088 -0.626834
vn 0.957785 -0.025856 0.286320
vn 0.252865 -0.397946 -0.881872
vn 0.277119 -0.181915 -0.943457
vn 0.287101 0.034854 -0.957266
vn 0.284055 0.238728 -0.928613
vn 0.270186 0.421380 -0.865701
vn 0.247779 0.579402 -0.776465
vn 0.184005 0.820435 -0.541321
vn 0.144510 0.904342 -0.401600
vn 0.100481 0.963278 -0.248994
vn 0.052110 0.995076 -0.084311
vn -0.000241 0.995860 0.090896
vn -0.055660 0.960386 0.273059
vn -0.112242 0.883205 0.455357
vn -0.166796 0.761103 0.626819
vn -0.215108 0.596180 0.773498
vn -0.252866 0.397928 0.881880
vn -0.277116 0.181935 0.943455
vn -0.287106 -0.034872 0.957264
vn -0.284056 -0.238711 0.928617
vn -0.270182 -0.421391 0.865697
vn -0.247782 -0.579414 0.776455
vn -0.218657 -0.712238 0.667013
vn -0.184006 -0.820434 0.541322
vn -0.144510 -0.904335 0.401616
vn -0.100482 -0.963281 0.248986
vn 0.000243 -0.995861 -0.090886
vn 0.055660 -0.960381 -0.273075
vn 0.112240 -0.883204 -0.455361
vn -0.957784 0.025902 -0.286319
vn -0.957790 0.025898 -0.286300
vn -0.957781 0.025903 -0.286329
vn -0.957784 0.025903 -0.286318
vn -0.957784 0.025898 -0.286321
vn -0.957784 0.025897 -0.286319
vn -0.957785 0.025902 -0.286315
vn -0.957784 0.025899 -0.286319
vn -0.957786 0.025899 -0.286314
vn -0.957784 0.025895 -0.286319
vn -0.957785 0.025904 -0.286317
vn -0.957789 0.025912 -0.286300
vn -0.957790 0.025914 -0.286297
vn -0.957779 0.025896 -0.286337
vn -0.957785 0.025904 -0.286314
vn -0.957785 0.025899 -0.286317
vn -0.957784 0.025900 -0.286319
vn -0.957784 0.025896 -0.286318
vn -0.957786 0.025901 -0.286312
vn -0.957787 0.025900 -0.286308
vn -0.957786 0.025900 -0.286314
vn -0.957784 0.025903 -0.286319
vn -0.957784 0.025897 -0.286321
vn -0.957785 0.025900 -0.286318
vn -0.957797 0.025892 -0.286277
vn -0.957785 0.025900 -0.286317
vn -0.957785 0.025897 -0.286316
vn 0.215104 -0.596184 -0.773495
vn 0.166804 -0.761095 -0.626826
vn 0.957781 -0.025902 0.286330
vn 0.957789 -0.025906 0.286303
vn 0.957776 -0.025903 0.286345
vn 0.957790 -0.025900 0.286301
vn 0.957781 -0.025901 0.286331
vn 0.957785 -0.025904 0.286318
vn 0.957788 -0.025894 0.286308
vn 0.957783 -0.025899 0.286324
vn 0.957783 -0.025905 0.286323
vn 0.957787 -0.025903 0.286311
vn 0.957787 -0.025910 0.286309
vn 0.957782 -0.025884 0.286327
vn 0.957785 -0.025918 0.286314
vn 0.957778 -0.025885 0.286342
vn 0.957785 -0.025879 0.286319
vn 0.957785 -0.025895 0.286317
vn 0.957784 -0.025906 0.286320
vn 0.957789 -0.025906 0.286304
vn 0.957783 -0.025903 0.286322
vn 0.957782 -0.025898 0.286327
vn 0.957786 -0.025900 0.286313
vn 0.957786 -0.025899 0.286314
vn 0.957776 -0.025895 0.286348
vn 0.957785 -0.025899 0.286317
vn 0.957788 -0.025863 0.286311
vn 0.957785 -0.025824 0.286323
vn 0.957791 -0.026077 0.286281
vn 0.957787 -0.025864 0.286311
s off
f 1//1 2//1 3//1
f 3//2 4//2 5//2
f 5//3 6//3 7//3
f 7//4 8//4 9//4
f 9//5 10//5 11//5
f 11//6 12//6 13//6
f 13//7 14//7 15//7
f 15//8 16//8 17//8
f 17//9 18//9 19//9
f 19//10 20//10 21//10
f 21//11 22//11 23//11
f 23//12 24//12 25//12
f 25//13 26//13 27//13
f 27//14 28//14 29//14
f 29//15 30//15 31//15
f 31//16 32//16 33//16
f 33//17 34//17 35//17
f 35//18 36//18 37//18
f 37//19 38//19 39//19
f 39//20 40//20 41//20
f 41//21 42//21 43//21
f 43//22 44//22 45//22
f 45//23 46//23 47//23
f 47//24 48//24 49//24
f 49//25 50//25 51//25
f 51//26 52//26 53//26
f 53//27 54//27 55//27
f 55//28 56//28 57//28
f 57//29 58//29 59//29
f 59//30 60//30 61//30
f 4//31 2//31 6//31
f 63//32 64//32 1//32
f 61//33 62//33 63//33
f 1//34 3//34 63//34
f 2//35 4//35 3//35
f 4//36 6//36 5//36
f 6//37 8//37 7//37
f 8//38 10//38 9//38
f 10//39 12//39 11//39
f 12//40 14//40 13//40
f 14//7 16//7 15//7
f 16//41 18//41 17//41
f 18//42 20//42 19//42
f 20//43 22//43 21//43
f 22//44 24//44 23//44
f 24//45 26//45 25//45
f 26//46 28//46 27//46
f 28//47 30//47 29//47
f 30//48 32//48 31//48
f 32//49 34//49 33//49
f 34//50 36//50 35//50
f 36//51 38//51 37//51
f 38//52 40//52 39//52
f 40//53 42//53 41//53
f 42//54 44//54 43//54
f 44//55 46//55 45//55
f 46//56 48//56 47//56
f 48//57 50//57 49//57
f 50//58 52//58 51//58
f 52//59 54//59 53//59
f 54//27 56//27 55//27
f 56//60 58//60 57//60
f 58//61 60//61 59//61
f 60//62 62//62 61//62
f 2//63 64//63 6//63
f 64//64 62//64 6//64
f 62//65 60//65 6//65
f 60//66 58//66 6//66
f 58//67 56//67 6//67
f 56//68 54//68 6//68
f 54//69 52//69 6//69
f 52//70 50//70 6//70
f 50//71 48//71 6//71
f 48//72 46//72 6//72
f 46//73 44//73 6//73
f 32//74 36//74 34//74
f 30//75 36//75 32//75
f 30//76 38//76 36//76
f 30//77 40//77 38//77
f 28//78 40//78 30//78
f 26//79 40//79 28//79
f 42//80 40//80 26//80
f 44//81 42//81 26//81
f 44//82 26//82 24//82
f 44//78 24//78 22//78
f 44//83 22//83 20//83
f 44//84 20//84 18//84
f 44//70 18//70 16//70
f 44//85 16//85 14//85
f 44//86 14//86 12//86
f 8//87 6//87 10//87
f 6//88 44//88 10//88
f 44//89 12//89 10//89
f 64//90 2//90 1//90
f 62//91 64//91 63//91
f 3//92 5//92 63//92
f 5//93 7//93 63//93
f 7//94 9//94 63//94
f 9//95 11//95 63//95
f 11//96 13//96 63//96
f 13//97 15//97 63//97
f 15//98 17//98 63//98
f 17//99 19//99 63//99
f 19//100 21//100 63//100
f 21//101 23//101 63//101
f 23//102 25//102 63//102
f 35//103 31//103 33//103
f 37//104 31//104 35//104
f 37//105 29//105 31//105
f 27//106 29//106 37//106
f 27//107 37//107 39//107
f 27//108 39//108 41//108
f 25//109 27//109 41//109
f 25//110 41//110 43//110
f 25//111 43//111 45//111
f 25//112 45//112 47//112
f 25//113 47//113 49//113
f 61//114 63//114 59//114
f 63//110 25//110 59//110
f 25//115 49//115 59//115
f 49//116 51//116 59//116
f 51//117 53//117 59//117
f 53//118 55//118 57//118
f 59//119 53//119 57//119
