# Blender v2.69 (sub 0) OBJ File: ''
# www.blender.org
o Cylinder
v 0.039953 0.171839 -0.957204
v 0.039953 2.171839 -0.957204
v 0.235043 0.171839 -0.937989
v 0.235043 2.171839 -0.937989
v 0.422636 0.171839 -0.881083
v 0.422636 2.171839 -0.881083
v 0.595523 0.171839 -0.788674
v 0.595523 2.171839 -0.788674
v 0.747060 0.171839 -0.664311
v 0.747060 2.171839 -0.664311
v 0.871423 0.171839 -0.512774
v 0.871423 2.171839 -0.512774
v 0.963832 0.171839 -0.339887
v 0.963832 2.171839 -0.339887
v 1.020738 0.171839 -0.152294
v 1.020738 2.171839 -0.152294
v 1.039953 0.171839 0.042796
v 1.039953 2.171839 0.042796
v 1.020738 0.171839 0.237886
v 1.020738 2.171839 0.237886
v 0.963832 0.171839 0.425479
v 0.963832 2.171839 0.425479
v 0.871423 0.171839 0.598366
v 0.871423 2.171839 0.598366
v 0.747060 0.171839 0.749903
v 0.747060 2.171839 0.749903
v 0.595523 0.171839 0.874266
v 0.595523 2.171839 0.874266
v 0.422636 0.171839 0.966676
v 0.422636 2.171839 0.966676
v 0.235043 0.171839 1.023581
v 0.235043 2.171839 1.023581
v 0.039953 0.171839 1.042796
v 0.039953 2.171839 1.042796
v -0.155138 0.171839 1.023581
v -0.155138 2.171839 1.023581
v -0.342731 0.171839 0.966675
v -0.342731 2.171839 0.966675
v -0.515618 0.171839 0.874265
v -0.515618 2.171839 0.874265
v -0.667154 0.171839 0.749902
v -0.667154 2.171839 0.749902
v -0.791517 0.171839 0.598366
v -0.791517 2.171839 0.598366
v -0.883927 0.171839 0.425479
v -0.883927 2.171839 0.425479
v -0.940832 0.171839 0.237886
v -0.940832 2.171839 0.237886
v -0.960047 0.171839 0.042795
v -0.960047 2.171839 0.042795
v -0.940832 0.171839 -0.152295
v -0.940832 2.171839 -0.152295
v -0.883926 0.171839 -0.339888
v -0.883926 2.171839 -0.339888
v -0.791516 0.171839 -0.512775
v -0.791516 2.171839 -0.512775
v -0.667153 0.171839 -0.664312
v -0.667153 2.171839 -0.664312
v -0.515616 0.171839 -0.788674
v -0.515616 2.171839 -0.788674
v -0.342729 0.171839 -0.881084
v -0.342729 2.171839 -0.881084
v -0.155136 0.171839 -0.937989
v -0.155136 2.171839 -0.937989
vn 0.098017 0.000000 -0.995185
vn 0.290285 -0.000000 -0.956940
vn 0.471397 0.000000 -0.881921
vn 0.634393 0.000000 -0.773010
vn 0.773010 0.000000 -0.634393
vn 0.881921 -0.000000 -0.471397
vn 0.956940 -0.000000 -0.290284
vn 0.995185 -0.000000 -0.098017
vn 0.995185 -0.000000 0.098017
vn 0.956940 -0.000000 0.290285
vn 0.881921 0.000000 0.471396
vn 0.773010 0.000000 0.634393
vn 0.634393 0.000000 0.773010
vn 0.471397 -0.000000 0.881921
vn 0.290284 -0.000000 0.956940
vn 0.098017 0.000000 0.995185
vn -0.098017 0.000000 0.995185
vn -0.290285 0.000000 0.956940
vn -0.471397 -0.000000 0.881921
vn -0.634394 0.000000 0.773010
vn -0.773011 0.000000 0.634393
vn -0.881922 -0.000000 0.471396
vn -0.956941 -0.000000 0.290284
vn -0.995185 -0.000000 0.098016
vn -0.995185 -0.000000 -0.098018
vn -0.956940 -0.000000 -0.290286
vn -0.881921 0.000000 -0.471398
vn -0.773010 0.000000 -0.634394
vn -0.634392 0.000000 -0.773011
vn -0.471395 0.000000 -0.881922
vn 0.000000 1.000000 0.000003
vn -0.098017 -0.000000 -0.995185
vn -0.290283 -0.000000 -0.956941
vn 0.000000 -1.000000 -0.000000
vn 0.471396 0.000000 -0.881921
vn 0.881921 -0.000000 -0.471396
vn 0.881921 0.000000 0.471397
vn 0.634393 0.000000 0.773011
vn 0.290285 -0.000000 0.956940
vn -0.773009 0.000000 -0.634395
vn 0.000000 1.000000 0.000004
vn 0.000000 1.000000 0.000001
vn 0.000000 1.000000 0.000000
vn 0.000000 1.000000 -0.000001
vn 0.000000 1.000000 -0.000002
vn 0.000000 1.000000 0.000006
s off
f 1//1 2//1 3//1
f 3//2 4//2 5//2
f 5//3 6//3 7//3
f 7//4 8//4 9//4
f 9//5 10//5 11//5
f 11//6 12//6 13//6
f 13//7 14//7 15//7
f 15//8 16//8 17//8
f 17//9 18//9 19//9
f 19//10 20//10 21//10
f 21//11 22//11 23//11
f 23//12 24//12 25//12
f 25//13 26//13 27//13
f 27//14 28//14 29//14
f 29//15 30//15 31//15
f 31//16 32//16 33//16
f 33//17 34//17 35//17
f 35//18 36//18 37//18
f 37//19 38//19 39//19
f 39//20 40//20 41//20
f 41//21 42//21 43//21
f 43//22 44//22 45//22
f 45//23 46//23 47//23
f 47//24 48//24 49//24
f 49//25 50//25 51//25
f 51//26 52//26 53//26
f 53//27 54//27 55//27
f 55//28 56//28 57//28
f 57//29 58//29 59//29
f 59//30 60//30 61//30
f 4//31 2//31 6//31
f 63//32 64//32 1//32
f 61//33 62//33 63//33
f 1//34 3//34 63//34
f 2//1 4//1 3//1
f 4//2 6//2 5//2
f 6//35 8//35 7//35
f 8//4 10//4 9//4
f 10//5 12//5 11//5
f 12//36 14//36 13//36
f 14//7 16//7 15//7
f 16//8 18//8 17//8
f 18//9 20//9 19//9
f 20//10 22//10 21//10
f 22//37 24//37 23//37
f 24//12 26//12 25//12
f 26//38 28//38 27//38
f 28//14 30//14 29//14
f 30//39 32//39 31//39
f 32//16 34//16 33//16
f 34//17 36//17 35//17
f 36//18 38//18 37//18
f 38//19 40//19 39//19
f 40//20 42//20 41//20
f 42//21 44//21 43//21
f 44//22 46//22 45//22
f 46//23 48//23 47//23
f 48//24 50//24 49//24
f 50//25 52//25 51//25
f 52//26 54//26 53//26
f 54//27 56//27 55//27
f 56//40 58//40 57//40
f 58//29 60//29 59//29
f 60//30 62//30 61//30
f 2//41 64//41 6//41
f 64//41 62//41 6//41
f 62//42 60//42 6//42
f 60//42 58//42 6//42
f 58//43 56//43 6//43
f 56//42 54//42 6//42
f 54//42 52//42 6//42
f 52//43 50//43 6//43
f 50//43 48//43 6//43
f 48//43 46//43 6//43
f 46//43 44//43 6//43
f 44//42 42//42 6//42
f 42//44 40//44 6//44
f 40//44 38//44 6//44
f 38//43 36//43 6//43
f 36//43 34//43 6//43
f 34//43 32//43 6//43
f 32//43 30//43 6//43
f 30//43 28//43 6//43
f 28//43 26//43 6//43
f 26//43 24//43 6//43
f 24//43 22//43 6//43
f 22//43 20//43 6//43
f 20//43 18//43 6//43
f 18//43 16//43 6//43
f 16//44 14//44 6//44
f 14//45 12//45 6//45
f 12//42 10//42 6//42
f 10//46 8//46 6//46
f 64//32 2//32 1//32
f 62//33 64//33 63//33
f 3//34 5//34 63//34
f 5//34 7//34 63//34
f 7//34 9//34 63//34
f 9//34 11//34 63//34
f 11//34 13//34 63//34
f 13//34 15//34 63//34
f 15//34 17//34 63//34
f 17//34 19//34 63//34
f 19//34 21//34 63//34
f 21//34 23//34 63//34
f 23//34 25//34 63//34
f 25//34 27//34 63//34
f 27//34 29//34 63//34
f 29//34 31//34 63//34
f 31//34 33//34 63//34
f 33//34 35//34 63//34
f 35//34 37//34 63//34
f 37//34 39//34 63//34
f 39//34 41//34 63//34
f 41//34 43//34 63//34
f 43//34 45//34 63//34
f 45//34 47//34 63//34
f 47//34 49//34 63//34
f 49//34 51//34 63//34
f 51//34 53//34 63//34
f 53//34 55//34 63//34
f 55//34 57//34 63//34
f 57//34 59//34 61//34
f 63//34 57//34 61//34
