# Blender v2.69 (sub 0) OBJ File: 'untitled.blend'
# www.blender.org
o Cylinder.003_Cylinder.004
v 0.783385 1.255214 2.729252
v 0.783385 1.346982 2.729252
v 0.793838 1.255214 2.730879
v 0.793838 1.346982 2.730879
v 0.803889 1.255214 2.735697
v 0.803889 1.346982 2.735697
v 0.813152 1.255214 2.743521
v 0.813152 1.346982 2.743521
v 0.821272 1.255214 2.754050
v 0.821272 1.346982 2.754050
v 0.827935 1.255214 2.766880
v 0.827935 1.346982 2.766880
v 0.832887 1.255214 2.781517
v 0.832887 1.346982 2.781517
v 0.835936 1.255214 2.797400
v 0.835936 1.346982 2.797400
v 0.836965 1.255214 2.813917
v 0.836965 1.346982 2.813917
v 0.835936 1.255214 2.830435
v 0.835936 1.346982 2.830435
v 0.832887 1.255214 2.846317
v 0.832887 1.346982 2.846317
v 0.827935 1.255214 2.860955
v 0.827935 1.346982 2.860955
v 0.821272 1.255214 2.873784
v 0.821272 1.346982 2.873784
v 0.813152 1.255214 2.884313
v 0.813152 1.346982 2.884313
v 0.803889 1.255214 2.892137
v 0.803889 1.346982 2.892137
v 0.793838 1.255214 2.896955
v 0.793838 1.346982 2.896955
v 0.783385 1.255214 2.898582
v 0.783385 1.346982 2.898582
v 0.772932 1.255214 2.896955
v 0.772932 1.346982 2.896955
v 0.762880 1.255214 2.892137
v 0.762880 1.346982 2.892137
v 0.753617 1.255214 2.884313
v 0.753617 1.346982 2.884313
v 0.745497 1.255214 2.873784
v 0.745497 1.346982 2.873784
v 0.738834 1.255214 2.860954
v 0.738834 1.346982 2.860954
v 0.733883 1.255214 2.846317
v 0.733883 1.346982 2.846317
v 0.730834 1.255214 2.830434
v 0.730834 1.346982 2.830434
v 0.729804 1.255214 2.813917
v 0.729804 1.346982 2.813917
v 0.730834 1.255214 2.797400
v 0.730834 1.346982 2.797400
v 0.733883 1.255214 2.781517
v 0.733883 1.346982 2.781517
v 0.738834 1.255214 2.766880
v 0.738834 1.346982 2.766880
v 0.745498 1.255214 2.754050
v 0.745498 1.346982 2.754050
v 0.753617 1.255214 2.743521
v 0.753617 1.346982 2.743521
v 0.762880 1.255214 2.735697
v 0.762880 1.346982 2.735697
v 0.772932 1.255214 2.730879
v 0.772932 1.346982 2.730879
vn 0.153780 0.000000 -0.988105
vn 0.432253 -0.000000 -0.901752
vn 0.645249 -0.000000 -0.763972
vn 0.791884 0.000001 -0.610672
vn 0.887444 0.000000 -0.460916
vn 0.947271 -0.000000 -0.320432
vn 0.982067 0.000001 -0.188534
vn 0.998063 -0.000000 -0.062211
vn 0.998063 -0.000000 0.062211
vn 0.982066 0.000001 0.188537
vn 0.947270 -0.000000 0.320436
vn 0.887442 0.000000 0.460920
vn 0.791884 0.000001 0.610672
vn 0.645253 -0.000000 0.763969
vn 0.432228 -0.000000 0.901764
vn 0.153790 0.000000 0.988104
vn -0.153747 -0.000000 0.988110
vn -0.432230 0.000000 0.901763
vn -0.645264 -0.000000 0.763960
vn -0.791892 -0.000001 0.610661
vn -0.887452 0.000000 0.460900
vn -0.947270 -0.000000 0.320438
vn -0.982068 -0.000000 0.188525
vn -0.998063 -0.000000 0.062211
vn -0.998063 -0.000000 -0.062210
vn -0.982067 -0.000000 -0.188533
vn -0.947271 0.000001 -0.320433
vn -0.887446 0.000000 -0.460911
vn -0.791899 0.000000 -0.610652
vn -0.645248 0.000000 -0.763974
vn 0.000000 1.000000 -0.000025
vn -0.153760 -0.000000 -0.988108
vn -0.432250 -0.000000 -0.901754
vn 0.000000 -1.000000 -0.000018
vn 0.153752 0.000000 -0.988109
vn 0.432244 -0.000000 -0.901757
vn 0.645245 -0.000000 -0.763976
vn 0.791896 0.000001 -0.610656
vn 0.887443 0.000000 -0.460917
vn 0.947272 -0.000000 -0.320431
vn 0.982066 0.000001 -0.188535
vn 0.998063 -0.000000 -0.062210
vn 0.998063 -0.000000 0.062210
vn 0.947271 -0.000000 0.320435
vn 0.887441 0.000000 0.460921
vn 0.791897 0.000001 0.610655
vn 0.645248 -0.000000 0.763973
vn 0.432219 -0.000000 0.901769
vn 0.153763 0.000000 0.988108
vn -0.153780 -0.000000 0.988105
vn -0.432269 0.000000 0.901745
vn -0.645260 -0.000000 0.763963
vn -0.791887 -0.000001 0.610668
vn -0.887445 0.000000 0.460913
vn -0.947268 -0.000000 0.320441
vn -0.982067 -0.000000 0.188530
vn -0.998063 -0.000000 -0.062211
vn -0.982067 -0.000000 -0.188534
vn -0.947272 0.000001 -0.320432
vn -0.887446 0.000000 -0.460912
vn -0.791900 0.000000 -0.610650
vn -0.645232 0.000000 -0.763987
vn 0.000000 1.000000 0.000028
vn 0.000000 1.000000 0.000012
vn 0.000000 1.000000 0.000022
vn 0.000000 1.000000 0.000011
vn 0.000000 1.000000 0.000002
vn 0.000000 1.000000 -0.000004
vn 0.000000 1.000000 -0.000008
vn 0.000000 1.000000 0.000009
vn 0.000000 1.000000 0.000000
vn 0.000000 1.000000 0.000003
vn 0.000000 1.000000 0.000005
vn 0.000000 1.000000 -0.000003
vn 0.000000 1.000000 0.000055
vn 0.000000 1.000000 0.000029
vn 0.000000 1.000000 -0.000013
vn 0.000000 1.000000 -0.000014
vn 0.000000 1.000000 0.000008
vn 0.000000 1.000000 -0.000006
vn 0.000000 1.000000 -0.000005
vn 0.000000 1.000000 -0.000033
vn 0.000000 1.000000 0.000001
vn -0.153792 -0.000000 -0.988103
vn -0.432241 -0.000000 -0.901758
vn 0.000000 -1.000000 -0.000039
vn 0.000000 -1.000000 0.000025
vn 0.000000 -1.000000 -0.000007
vn 0.000000 -1.000000 -0.000000
vn 0.000000 -1.000000 -0.000005
vn 0.000000 -1.000000 0.000004
vn 0.000000 -1.000000 -0.000003
vn 0.000000 -1.000000 -0.000001
vn 0.000000 -1.000000 -0.000031
vn 0.000000 -1.000000 -0.000010
vn 0.000000 -1.000000 -0.000009
vn 0.000000 -1.000000 -0.000017
vn 0.000000 -1.000000 -0.000011
vn 0.000000 -1.000000 -0.000004
vn 0.000000 -1.000000 0.000005
vn 0.000000 -1.000000 -0.000054
vn 0.000000 -1.000000 -0.000002
vn 0.000000 -1.000000 0.000001
vn 0.000000 -1.000000 0.000002
vn 0.000000 -1.000000 0.000012
s off
f 1//1 2//1 3//1
f 3//2 4//2 5//2
f 5//3 6//3 7//3
f 7//4 8//4 9//4
f 9//5 10//5 11//5
f 11//6 12//6 13//6
f 13//7 14//7 15//7
f 15//8 16//8 17//8
f 17//9 18//9 19//9
f 19//10 20//10 21//10
f 21//11 22//11 23//11
f 23//12 24//12 25//12
f 25//13 26//13 27//13
f 27//14 28//14 29//14
f 29//15 30//15 31//15
f 31//16 32//16 33//16
f 33//17 34//17 35//17
f 35//18 36//18 37//18
f 37//19 38//19 39//19
f 39//20 40//20 41//20
f 41//21 42//21 43//21
f 43//22 44//22 45//22
f 45//23 46//23 47//23
f 47//24 48//24 49//24
f 49//25 50//25 51//25
f 51//26 52//26 53//26
f 53//27 54//27 55//27
f 55//28 56//28 57//28
f 57//29 58//29 59//29
f 59//30 60//30 61//30
f 4//31 2//31 6//31
f 63//32 64//32 1//32
f 61//33 62//33 63//33
f 1//34 3//34 63//34
f 2//35 4//35 3//35
f 4//36 6//36 5//36
f 6//37 8//37 7//37
f 8//38 10//38 9//38
f 10//39 12//39 11//39
f 12//40 14//40 13//40
f 14//41 16//41 15//41
f 16//42 18//42 17//42
f 18//43 20//43 19//43
f 20//10 22//10 21//10
f 22//44 24//44 23//44
f 24//45 26//45 25//45
f 26//46 28//46 27//46
f 28//47 30//47 29//47
f 30//48 32//48 31//48
f 32//49 34//49 33//49
f 34//50 36//50 35//50
f 36//51 38//51 37//51
f 38//52 40//52 39//52
f 40//53 42//53 41//53
f 42//54 44//54 43//54
f 44//55 46//55 45//55
f 46//56 48//56 47//56
f 48//24 50//24 49//24
f 50//57 52//57 51//57
f 52//58 54//58 53//58
f 54//59 56//59 55//59
f 56//60 58//60 57//60
f 58//61 60//61 59//61
f 60//62 62//62 61//62
f 2//63 64//63 6//63
f 64//64 62//64 6//64
f 62//65 60//65 6//65
f 60//66 58//66 6//66
f 58//67 56//67 6//67
f 56//68 54//68 6//68
f 54//68 52//68 6//68
f 52//69 50//69 6//69
f 50//70 48//70 6//70
f 48//71 46//71 6//71
f 46//72 44//72 6//72
f 44//73 42//73 6//73
f 42//74 40//74 6//74
f 40//75 38//75 36//75
f 32//76 36//76 34//76
f 40//70 36//70 32//70
f 40//77 32//77 30//77
f 40//78 30//78 28//78
f 40//79 28//79 26//79
f 40//67 26//67 24//67
f 40//80 24//80 22//80
f 40//81 22//81 20//81
f 40//67 20//67 18//67
f 40//68 18//68 16//68
f 40//68 16//68 14//68
f 8//82 6//82 10//82
f 6//67 40//67 10//67
f 40//83 14//83 12//83
f 10//83 40//83 12//83
f 64//84 2//84 1//84
f 62//85 64//85 63//85
f 3//86 5//86 63//86
f 5//87 7//87 63//87
f 7//88 9//88 63//88
f 9//89 11//89 63//89
f 11//89 13//89 63//89
f 13//90 15//90 63//90
f 15//91 17//91 63//91
f 17//92 19//92 63//92
f 19//89 21//89 63//89
f 21//89 23//89 63//89
f 23//93 25//93 63//93
f 25//93 27//93 63//93
f 35//89 31//89 33//89
f 29//94 31//94 35//94
f 29//95 35//95 37//95
f 27//96 29//96 37//96
f 27//97 37//97 39//97
f 27//98 39//98 41//98
f 27//88 41//88 43//88
f 27//99 43//99 45//99
f 27//100 45//100 47//100
f 27//93 47//93 49//93
f 61//101 63//101 59//101
f 63//102 27//102 59//102
f 27//103 49//103 59//103
f 49//104 51//104 59//104
f 51//91 53//91 59//91
f 53//102 55//102 57//102
f 59//105 53//105 57//105
